<svg width="324" height="23" viewBox="0 0 324 23" fill="none" xmlns="http://www.w3.org/2000/svg">
<g clip-path="url(#clip0_1_1651)">
<path d="M310.419 21.4964C309.551 20.862 309.112 19.775 309.112 18.2775L309.112 14.7228L304.186 14.7228C302.432 14.7228 301 13.2953 301 11.5366L301 11.4386C301 11.4106 301.005 11.378 301.009 11.35L302.32 3.11623C302.563 1.13826 303.944 -3.30002e-06 306.104 -2.92237e-06L315.863 -1.21601e-06C317.617 -9.09325e-07 319.049 1.42749 319.049 3.18621L319.049 12.3343C319.049 12.6095 319.273 12.8335 319.548 12.8335L322.221 12.8335C322.496 12.8335 322.72 12.6095 322.72 12.3343L322.72 2.63573C322.72 2.3605 322.496 2.13658 322.221 2.13658L320.677 2.13658C320.36 2.13658 320.103 1.88 320.103 1.56278C320.103 1.24556 320.36 0.988983 320.677 0.988983L322.221 0.988983C323.126 0.988983 323.863 1.72606 323.863 2.63107L323.863 12.3343C323.863 13.2393 323.126 13.9764 322.221 13.9764L319.548 13.9764C318.904 13.9764 318.345 13.6032 318.074 13.062C318.037 13.0854 317.995 13.0994 317.948 13.1134C317.794 13.1553 314.151 14.2236 314.151 17.3679L314.151 21.3611C314.151 21.613 313.987 21.8323 313.749 21.9069C313.675 21.9302 311.79 22.504 310.419 21.4964ZM317.645 12.0171C317.733 11.9938 317.822 11.9891 317.906 12.0078L317.906 3.18621C317.906 2.06194 316.992 1.14293 315.863 1.14293L312.765 1.14293L306.104 1.14293C304.517 1.14293 303.626 1.85201 303.449 3.27484L302.143 11.4853L302.143 11.5366C302.143 12.6609 303.057 13.5799 304.186 13.5799L309.686 13.5799C310.003 13.5799 310.26 13.8364 310.26 14.1537L310.26 18.2775C310.26 19.3925 310.54 20.1622 311.095 20.5727C311.697 21.0206 312.527 20.9786 313.012 20.8993L313.012 17.3725C313.012 13.3606 317.454 12.0684 317.645 12.0171Z" fill="white"/>
<path d="M281.445 0.594303C282.312 1.22875 282.751 2.31569 282.751 3.81316L282.751 7.36791L287.677 7.36791C289.431 7.36791 290.863 8.7954 290.863 10.5541L290.863 10.6521C290.863 10.6801 290.859 10.7127 290.854 10.7407L289.543 18.9745C289.301 20.9524 287.92 22.0907 285.76 22.0907L276.001 22.0907C274.246 22.0907 272.814 20.6632 272.814 18.9045L272.814 9.7564C272.814 9.48116 272.59 9.25724 272.315 9.25724L269.642 9.25724C269.367 9.25724 269.143 9.48116 269.143 9.7564L269.143 19.455C269.143 19.7302 269.367 19.9541 269.642 19.9541L271.186 19.9541C271.503 19.9541 271.76 20.2107 271.76 20.5279C271.76 20.8451 271.503 21.1017 271.186 21.1017L269.642 21.1017C268.737 21.1017 268 20.3646 268 19.4596L268 9.7564C268 8.85139 268.737 8.11431 269.642 8.11431L272.315 8.11431C272.959 8.11431 273.519 8.48751 273.789 9.02865C273.827 9.00533 273.869 8.99134 273.915 8.97734C274.069 8.93535 277.713 7.86707 277.713 4.72284L277.713 0.729589C277.713 0.477678 277.876 0.258422 278.114 0.183782C278.188 0.160457 280.073 -0.413341 281.445 0.594303ZM274.219 10.0736C274.13 10.0969 274.041 10.1016 273.957 10.0829L273.957 18.9045C273.957 20.0288 274.872 20.9478 276.001 20.9478L279.098 20.9478L285.76 20.9478C287.346 20.9478 288.237 20.2387 288.414 18.8159L289.72 10.6054L289.72 10.5541C289.72 9.42985 288.806 8.51084 287.677 8.51084L282.177 8.51084C281.86 8.51084 281.603 8.25426 281.603 7.93704L281.603 3.81317C281.603 2.69823 281.323 1.9285 280.768 1.51798C280.166 1.07013 279.336 1.11212 278.851 1.19143L278.851 4.71818C278.851 8.73009 274.41 10.0223 274.219 10.0736Z" fill="white"/>
</g>
<defs>
<clipPath id="clip0_1_1651">
<rect width="323.863" height="22.0907" fill="white"/>
</clipPath>
</defs>
</svg>
