<svg width="23" height="23" viewBox="0 0 23 23" fill="none" xmlns="http://www.w3.org/2000/svg">
<path d="M13.4446 0.594303C14.3123 1.22875 14.7508 2.31569 14.7508 3.81316L14.7508 7.36791L19.6771 7.36791C21.4311 7.36791 22.8633 8.7954 22.8633 10.5541L22.8633 10.6521C22.8633 10.6801 22.8586 10.7127 22.854 10.7407L21.5431 18.9745C21.3005 20.9524 19.9197 22.0907 17.7598 22.0907L8.00054 22.0907C6.24649 22.0907 4.81433 20.6632 4.81433 18.9045L4.81433 9.7564C4.81433 9.48116 4.59041 9.25724 4.31517 9.25724L1.64212 9.25724C1.36688 9.25724 1.14296 9.48116 1.14296 9.7564L1.14296 19.455C1.14296 19.7302 1.36688 19.9541 1.64212 19.9541L3.18624 19.9541C3.50346 19.9541 3.76004 20.2107 3.76004 20.5279C3.76004 20.8451 3.50346 21.1017 3.18624 21.1017L1.64212 21.1017C0.737106 21.1017 3.22979e-05 20.3646 3.22188e-05 19.4596L3.13705e-05 9.7564C3.12914e-05 8.85139 0.737105 8.11431 1.64212 8.11431L4.31517 8.11431C4.95895 8.11431 5.51875 8.48751 5.78932 9.02865C5.82664 9.00533 5.86862 8.99134 5.91527 8.97734C6.06922 8.93535 9.7126 7.86707 9.7126 4.72284L9.7126 0.729589C9.7126 0.477678 9.87587 0.258422 10.1138 0.183782C10.1884 0.160457 12.0731 -0.413341 13.4446 0.594303ZM6.2185 10.0736C6.12986 10.0969 6.04123 10.1016 5.95726 10.0829L5.95726 18.9045C5.95726 20.0288 6.8716 20.9478 8.00054 20.9478L11.0981 20.9478L17.7598 20.9478C19.3459 20.9478 20.2369 20.2387 20.4141 18.8159L21.7204 10.6054L21.7204 10.5541C21.7204 9.42985 20.806 8.51084 19.6771 8.51084L14.177 8.51084C13.8598 8.51084 13.6032 8.25426 13.6032 7.93704L13.6032 3.81317C13.6032 2.69823 13.3233 1.9285 12.7682 1.51798C12.1664 1.07013 11.336 1.11212 10.8509 1.19143L10.8509 4.71818C10.8509 8.73009 6.40977 10.0223 6.2185 10.0736Z" fill="white"/>
</svg>
