<svg width="23" height="23" viewBox="0 0 23 23" fill="none" xmlns="http://www.w3.org/2000/svg">
<path d="M13.4446 0.594181C14.3123 1.22862 14.7508 2.31557 14.7508 3.81304L14.7508 7.36779L19.677 7.36779C21.4311 7.36779 22.8633 8.79528 22.8633 10.554L22.8633 10.652C22.8633 10.6799 22.8586 10.7126 22.8539 10.7406L21.5431 18.9744C21.3005 20.9523 19.9196 22.0906 17.7597 22.0906L8.00051 22.0906C6.24646 22.0906 4.8143 20.6631 4.8143 18.9044L4.8143 9.75628C4.8143 9.48104 4.59038 9.25712 4.31514 9.25712L1.64209 9.25712C1.36685 9.25712 1.14293 9.48104 1.14293 9.75628L1.14293 19.4548C1.14293 19.7301 1.36685 19.954 1.64209 19.954L3.18621 19.954C3.50343 19.954 3.76001 20.2106 3.76001 20.5278C3.76001 20.845 3.50343 21.1016 3.18621 21.1016L1.64209 21.1016C0.737074 21.1016 1.78032e-06 20.3645 1.7012e-06 19.4595L8.52921e-07 9.75628C7.73802e-07 8.85126 0.737073 8.11419 1.64209 8.11419L4.31514 8.11419C4.95891 8.11419 5.51872 8.48739 5.78929 9.02853C5.82661 9.00521 5.86859 8.99121 5.91524 8.97722C6.06919 8.93523 9.71257 7.86694 9.71257 4.72272L9.71257 0.729467C9.71257 0.477556 9.87584 0.2583 10.1138 0.18366C10.1884 0.160335 12.0731 -0.413463 13.4446 0.594181Z" fill="white"/>
</svg>
