<svg width="56" height="23" viewBox="0 0 56 23" fill="none" xmlns="http://www.w3.org/2000/svg">
<path d="M42.4186 21.4964C41.5509 20.862 41.1124 19.775 41.1124 18.2775L41.1124 14.7228L36.1861 14.7228C34.4321 14.7228 32.9999 13.2953 32.9999 11.5366L32.9999 11.4386C32.9999 11.4106 33.0046 11.378 33.0093 11.35L34.3201 3.11623C34.5627 1.13826 35.9436 -3.30002e-06 38.1035 -2.92237e-06L47.8627 -1.21601e-06C49.6167 -9.09325e-07 51.0489 1.42749 51.0489 3.18621L51.0489 12.3343C51.0489 12.6095 51.2728 12.8335 51.548 12.8335L54.2211 12.8335C54.4963 12.8335 54.7203 12.6095 54.7203 12.3343L54.7203 2.63573C54.7203 2.3605 54.4963 2.13658 54.2211 2.13658L52.677 2.13658C52.3598 2.13658 52.1032 1.88 52.1032 1.56278C52.1032 1.24556 52.3598 0.988983 52.677 0.988983L54.2211 0.988983C55.1261 0.988983 55.8632 1.72606 55.8632 2.63107L55.8632 12.3343C55.8632 13.2393 55.1261 13.9764 54.2211 13.9764L51.548 13.9764C50.9043 13.9764 50.3445 13.6032 50.0739 13.062C50.0366 13.0854 49.9946 13.0994 49.9479 13.1134C49.794 13.1553 46.1506 14.2236 46.1506 17.3679L46.1506 21.3611C46.1506 21.613 45.9873 21.8323 45.7494 21.9069C45.6748 21.9302 43.7901 22.504 42.4186 21.4964ZM49.6447 12.0171C49.7334 11.9938 49.822 11.9891 49.906 12.0078L49.906 3.18621C49.906 2.06194 48.9916 1.14293 47.8627 1.14293L44.7651 1.14293L38.1035 1.14293C36.5174 1.14293 35.6263 1.85201 35.4491 3.27484L34.1429 11.4853L34.1429 11.5366C34.1429 12.6609 35.0572 13.5799 36.1861 13.5799L41.6862 13.5799C42.0034 13.5799 42.26 13.8364 42.26 14.1537L42.26 18.2775C42.26 19.3925 42.5399 20.1622 43.095 20.5727C43.6968 21.0206 44.5272 20.9786 45.0124 20.8993L45.0124 17.3725C45.0124 13.3606 49.4535 12.0684 49.6447 12.0171Z" fill="white"/>
<path d="M13.4446 0.594301C14.3123 1.22874 14.7508 2.31569 14.7508 3.81316L14.7508 7.36791L19.6771 7.36791C21.4311 7.36791 22.8633 8.7954 22.8633 10.5541L22.8633 10.6521C22.8633 10.6801 22.8586 10.7127 22.854 10.7407L21.5431 18.9745C21.3005 20.9524 19.9197 22.0907 17.7597 22.0907L8.00053 22.0907C6.24649 22.0907 4.81433 20.6632 4.81433 18.9045L4.81433 9.75639C4.81433 9.48116 4.59041 9.25724 4.31517 9.25724L1.64212 9.25724C1.36688 9.25724 1.14296 9.48116 1.14296 9.75639L1.14296 19.455C1.14296 19.7302 1.36688 19.9541 1.64211 19.9541L3.18624 19.9541C3.50346 19.9541 3.76003 20.2107 3.76003 20.5279C3.76003 20.8451 3.50346 21.1017 3.18624 21.1017L1.64211 21.1017C0.737103 21.1017 2.87373e-05 20.3646 2.88164e-05 19.4596L2.96647e-05 9.75639C2.97438e-05 8.85138 0.737104 8.11431 1.64212 8.11431L4.31517 8.11431C4.95894 8.11431 5.51874 8.48751 5.78932 9.02865C5.82664 9.00533 5.86862 8.99133 5.91527 8.97734C6.06922 8.93535 9.7126 7.86706 9.7126 4.72284L9.7126 0.729586C9.7126 0.477675 9.87587 0.25842 10.1138 0.183779C10.1884 0.160454 12.0731 -0.413343 13.4446 0.594301ZM6.2185 10.0736C6.12986 10.0969 6.04123 10.1016 5.95726 10.0829L5.95726 18.9045C5.95726 20.0288 6.8716 20.9478 8.00053 20.9478L11.0981 20.9478L17.7597 20.9478C19.3459 20.9478 20.2369 20.2387 20.4141 18.8159L21.7204 10.6054L21.7204 10.5541C21.7204 9.42985 20.806 8.51084 19.6771 8.51084L14.177 8.51084C13.8598 8.51084 13.6032 8.25426 13.6032 7.93704L13.6032 3.81316C13.6032 2.69822 13.3233 1.9285 12.7682 1.51797C12.1664 1.07013 11.336 1.11212 10.8509 1.19142L10.8509 4.71818C10.8509 8.73009 6.40976 10.0223 6.2185 10.0736Z" fill="white"/>
<path d="M5.49997 9.50012C7.66663 9.66678 12 9.00012 11 1.00012C14.3004 2.46696 14.1044 5.00959 13.7653 8.23352C15.5101 8.14299 17.8731 8.20698 21 8.50012C23.5 14.0001 19 23.0001 17.5 21.0001C13.5 20.5001 6.99997 22.5001 5.99997 20.5001C5.19997 18.9001 5.3333 12.5001 5.49997 9.50012Z" fill="white" stroke="white"/>
</svg>
