<svg width="49" height="55" viewBox="0 0 49 55" fill="none" xmlns="http://www.w3.org/2000/svg">
<path d="M9.79473 13.4H13.3467V47H9.79473V13.4ZM30.8071 16.472H18.9991V13.4H46.1671V16.472H34.3591V47H30.8071V16.472Z" fill="url(#paint0_linear_70_2907)"/>
<g filter="url(#filter0_d_70_2907)">
<path d="M7.91973 13.4H11.4717V47H7.91973V13.4ZM28.9321 16.472H17.1241V13.4H44.2921V16.472H32.4841V47H28.9321V16.472Z" fill="url(#paint1_linear_70_2907)"/>
</g>
<path d="M44.7971 15.0907C45.8542 15.0907 46.7112 14.2337 46.7112 13.1766C46.7112 12.1194 45.8542 11.2625 44.7971 11.2625C43.7399 11.2625 42.8829 12.1194 42.8829 13.1766C42.8829 14.2337 43.7399 15.0907 44.7971 15.0907Z" fill="url(#paint2_radial_70_2907)"/>
<path d="M4.26533 50.6585C6.621 50.6585 8.53065 48.7488 8.53065 46.3931C8.53065 44.0375 6.621 42.1278 4.26533 42.1278C1.90965 42.1278 0 44.0375 0 46.3931C0 48.7488 1.90965 50.6585 4.26533 50.6585Z" fill="url(#paint3_radial_70_2907)"/>
<path d="M18.8034 19.2668C18.7958 19.2718 18.4946 19.2944 18.1353 19.3171C16.9508 19.3874 16.928 19.3925 16.389 19.6538C15.3007 20.1841 14.2985 21.1341 13.7569 22.1519C13.5266 22.5867 13.1267 23.6699 12.9597 24.3157C12.6661 25.4592 12.5877 26.6806 12.7446 27.7236C12.7952 28.0553 12.9268 28.4172 13.2786 29.1988C13.719 30.1815 13.9493 30.5584 14.501 31.2169C14.9717 31.7798 15.1362 31.9482 15.3488 32.0839C16.0498 32.5313 16.9027 33.0264 17.1862 33.147C17.7329 33.3832 18.2466 33.5818 18.6667 33.7175C19.3323 33.9336 20.0966 34.293 21.071 34.8484C21.7012 35.2078 21.9568 35.3812 22.2757 35.6702C22.7388 36.0924 22.9666 36.399 23.1311 36.8338C23.3007 37.2736 23.5689 38.1859 23.5563 38.2638C23.5487 38.3065 23.5107 38.5151 23.4753 38.7287C23.3361 39.5405 23.0906 40.3447 22.9464 40.4628C22.8932 40.5055 22.6882 40.4754 21.3494 40.214C20.8635 40.1185 20.2637 40.013 20.0207 39.9778C19.7778 39.9426 19.469 39.8898 19.3374 39.8622C18.9527 39.7843 17.9505 39.7013 16.9205 39.6636C16.2473 39.6385 14.7515 39.6686 14.5668 39.7114C14.4984 39.7265 14.3441 39.7817 14.2251 39.837C14.1062 39.8898 13.8632 39.9928 13.681 40.0607C13.1318 40.2743 12.7117 40.5558 12.3903 40.9353C11.9727 41.4279 11.6842 41.9129 11.6032 42.2647C11.5652 42.4231 11.5576 42.5714 11.5551 43.0036C11.5551 43.5967 11.5703 43.6922 11.7221 43.9888C11.8082 44.1597 11.8436 44.3431 11.7981 44.3959C11.7803 44.416 11.7297 44.4437 11.6867 44.4562C11.383 44.5467 10.9831 44.6724 10.9097 44.705C10.7857 44.7553 10.7098 44.7201 10.5326 44.5417C10.1302 44.132 9.84172 43.6319 9.68987 43.079C9.63925 42.8905 9.63166 42.8076 9.63166 42.3753C9.63166 41.6339 9.6924 41.3927 10.1049 40.5156C10.5326 39.6083 11.3501 37.9723 11.4893 37.7411C11.6209 37.5199 11.7955 37.0575 11.8563 36.7584C11.9448 36.3287 11.9297 35.8587 11.8082 35.4641C11.7778 35.3611 11.7221 35.1726 11.6842 35.0495C11.5576 34.6222 11.3957 34.3784 11.2666 34.4212C11.1932 34.4438 11.1982 34.5493 11.2792 34.773C11.3779 35.0444 11.3855 35.2756 11.302 35.5521C11.264 35.6752 11.2008 35.8964 11.1628 36.0422C10.9781 36.7257 10.8363 37.0173 10.5276 37.3415C10.2644 37.6179 9.93536 38.0326 9.75061 38.3115C9.67975 38.4196 9.58611 38.5478 9.54561 38.593C9.50765 38.6383 9.41401 38.7815 9.34062 38.9097C9.26722 39.0404 9.15334 39.2037 9.08753 39.2766C8.93062 39.445 8.79902 39.646 8.69272 39.8722C8.58643 40.1059 8.15619 41.3726 8.02458 41.845C7.93601 42.1617 7.89551 42.3577 7.7715 43.0313C7.7386 43.2072 7.7386 43.3504 7.7715 43.4861C7.79934 43.6118 7.90817 44.2602 7.97397 44.7151C8.07267 45.3811 8.24983 46.0822 8.39409 46.3863C8.47507 46.5547 8.67754 46.8186 8.8142 46.9342C8.87494 46.9845 8.99136 47.08 9.07488 47.1503C9.53296 47.5273 10.477 47.947 10.9806 47.9948C11.2033 48.0149 11.3349 48.0752 11.4994 48.226C11.6563 48.3717 12.0638 48.6281 12.4282 48.809C12.5725 48.8819 12.7724 48.995 12.8711 49.0603C13.1191 49.2262 13.9771 49.661 14.3264 49.7967C14.4858 49.8595 14.7262 49.9425 14.8578 49.9802C14.9894 50.0153 15.3387 50.1234 15.6297 50.2164C16.8142 50.5934 17.2064 50.6914 17.748 50.7442C17.8923 50.7567 18.1732 50.7844 18.3757 50.8045C18.5781 50.8246 18.9932 50.8547 19.2994 50.8698C19.6057 50.8849 20.0233 50.9075 20.2308 50.9201C20.7167 50.9527 21.5519 50.9527 21.9188 50.9201C22.0783 50.905 22.5516 50.8824 22.9691 50.8698C23.3867 50.8572 23.8651 50.8296 24.0321 50.807C25.095 50.6637 27.6284 50.1234 28.866 49.7716C29.1267 49.6987 29.5569 49.5027 30.0302 49.2388C30.4705 48.9925 30.7692 48.7864 30.9261 48.618C31.0754 48.4597 31.0273 48.4496 31.4196 48.7035C31.7233 48.8995 32.1535 49.1081 32.4344 49.196C32.6951 49.279 32.8925 49.3192 33.4291 49.3971C33.672 49.4348 34.0213 49.4976 34.2086 49.5378C34.8033 49.671 35.145 49.7163 35.6106 49.7314C36.3319 49.754 37.7315 49.6635 38.2047 49.563C38.635 49.47 39.1158 49.1659 39.379 48.814C39.6726 48.427 39.9206 47.8691 40.0269 47.364C40.1535 46.7683 40.1661 46.6201 40.113 46.3662C40.032 45.9641 40.0016 45.8611 39.9004 45.655C39.8219 45.4942 39.741 45.3735 39.622 45.2454C39.4195 45.0292 39.0678 44.788 38.845 44.7151C38.5742 44.6271 38.5793 44.6321 38.6274 44.3708C38.6957 44.0164 38.7008 43.9511 38.6729 43.6897C38.6198 43.172 38.4452 42.7196 38.1035 42.212C37.777 41.7269 37.6075 41.5736 37.1696 41.3701C36.914 41.2494 36.4028 41.0584 36.1421 40.983C35.2766 40.7393 35.0792 40.7041 34.5857 40.7091C33.8669 40.7166 32.7584 40.8096 31.207 40.9956C30.6907 41.0559 30.4199 41.0735 29.8505 41.0861C28.828 41.1062 27.4867 41.0232 27.3905 40.9328C27.3652 40.9076 27.3753 40.8423 27.4487 40.5935C27.6486 39.8973 27.6993 39.5153 27.6815 38.7941C27.6714 38.3216 27.6562 38.1608 27.5778 37.6757C27.4715 37.0198 27.4234 36.8187 27.2969 36.5071C26.9375 35.6199 26.2162 34.6398 25.1988 33.6647C24.3662 32.8605 23.8524 32.4936 22.7667 31.913C22.2605 31.6441 20.6534 30.9882 19.7423 30.6766C19.383 30.5559 19.2311 30.483 18.9704 30.3172C18.5377 30.0432 17.8467 29.4778 17.3861 29.0254C17.1786 28.8193 17.128 28.754 17.0267 28.5504C16.7964 28.0779 16.5636 27.2989 16.4902 26.7485C16.3966 26.0448 16.5054 25.1401 16.7838 24.2981C17.0419 23.5166 17.3963 23.0793 18.0037 22.7978C18.3706 22.6269 18.4668 22.6143 19.2589 22.6319C19.798 22.6445 19.9701 22.6571 20.0283 22.6847C20.0713 22.7048 20.1422 22.7224 20.1878 22.7224C20.5345 22.7224 21.6683 23.6497 22.8806 24.9264C23.078 25.1325 23.121 25.1652 23.3994 25.3034C23.7056 25.4567 24.0194 25.5874 24.8799 25.9091C25.8391 26.271 26.0593 26.2961 26.2567 26.0649C26.2921 26.0197 26.3225 25.9669 26.3225 25.9468C26.3225 25.8664 26.115 25.7156 25.7404 25.5246C25.0571 25.1752 24.8242 24.9415 24.2675 24.0292C24.0498 23.6724 23.7917 23.1672 23.698 22.9134C23.6752 22.8531 23.6575 22.7174 23.6575 22.5892C23.655 22.3982 23.6601 22.363 23.7081 22.3178C23.7588 22.2675 23.7689 22.265 23.898 22.2952C24.1561 22.3555 24.7939 22.6043 25.1203 22.7727C25.3026 22.8682 25.6037 22.9988 25.791 23.0617C26.2061 23.2049 26.2972 23.2502 26.3832 23.3507C26.4718 23.4562 26.4693 23.5693 26.3706 23.9036C26.2693 24.2529 26.2491 24.4062 26.3073 24.4062C26.4364 24.4062 26.6237 24.1549 26.8287 23.7025C26.8995 23.5442 26.9679 23.4009 26.983 23.3859C27.0235 23.3381 27.4335 23.2728 27.6385 23.2803L27.8283 23.2879L27.8359 23.3708C27.841 23.416 27.8207 23.5241 27.7954 23.6095C27.6841 23.9538 27.6486 24.268 27.7246 24.2403C27.7752 24.2202 27.9321 23.989 28.1067 23.6774C28.3699 23.2074 28.4256 23.1496 28.6939 23.0592C28.9647 22.9687 29.238 22.7701 29.3494 22.5817C29.4506 22.4082 29.4683 22.2977 29.4253 22.0564C29.3671 21.7322 29.3241 21.687 29.0102 21.6417C28.6534 21.5915 27.8916 21.3075 27.5879 21.1115C27.3449 20.9556 27.1906 20.8853 26.4111 20.5787C25.1203 20.0685 24.9078 20.0283 23.7107 20.0836C22.9008 20.1213 22.6806 20.1037 22.1795 19.968C21.6303 19.8172 20.9824 19.6639 20.7167 19.6212C20.5775 19.596 20.3396 19.5508 20.1852 19.5181C20.0334 19.4854 19.7423 19.4276 19.5399 19.3925C19.3374 19.3548 19.14 19.3095 19.0995 19.2894C19.0312 19.2567 18.8287 19.2391 18.8034 19.2668Z" fill="url(#paint4_linear_70_2907)"/>
<defs>
<filter id="filter0_d_70_2907" x="3.91968" y="13.4" width="44.3724" height="41.6" filterUnits="userSpaceOnUse" color-interpolation-filters="sRGB">
<feFlood flood-opacity="0" result="BackgroundImageFix"/>
<feColorMatrix in="SourceAlpha" type="matrix" values="0 0 0 0 0 0 0 0 0 0 0 0 0 0 0 0 0 0 127 0" result="hardAlpha"/>
<feOffset dy="4"/>
<feGaussianBlur stdDeviation="2"/>
<feComposite in2="hardAlpha" operator="out"/>
<feColorMatrix type="matrix" values="0 0 0 0 0 0 0 0 0 0 0 0 0 0 0 0 0 0 0.25 0"/>
<feBlend mode="normal" in2="BackgroundImageFix" result="effect1_dropShadow_70_2907"/>
<feBlend mode="normal" in="SourceGraphic" in2="effect1_dropShadow_70_2907" result="shape"/>
</filter>
<linearGradient id="paint0_linear_70_2907" x1="49.3154" y1="45.8646" x2="6.51894" y2="9.322" gradientUnits="userSpaceOnUse">
<stop stop-color="#3557ED"/>
<stop offset="1" stop-color="#BC177C"/>
</linearGradient>
<linearGradient id="paint1_linear_70_2907" x1="-5.79128" y1="13.9971" x2="34.8503" y2="42.3549" gradientUnits="userSpaceOnUse">
<stop stop-color="white"/>
<stop offset="0.625" stop-color="#FF29BA"/>
<stop offset="1" stop-color="#A749FF"/>
</linearGradient>
<radialGradient id="paint2_radial_70_2907" cx="0" cy="0" r="1" gradientUnits="userSpaceOnUse" gradientTransform="translate(45.818 12.1557) rotate(109.179) scale(3.10747)">
<stop stop-color="white"/>
<stop offset="0.682292" stop-color="#D7A5FF"/>
<stop offset="1" stop-color="#D8A7FF"/>
</radialGradient>
<radialGradient id="paint3_radial_70_2907" cx="0" cy="0" r="1" gradientUnits="userSpaceOnUse" gradientTransform="translate(6.54017 44.1183) rotate(109.179) scale(6.92451)">
<stop stop-color="white"/>
<stop offset="0.682292" stop-color="#D7A5FF"/>
<stop offset="1" stop-color="#D8A7FF"/>
</radialGradient>
<linearGradient id="paint4_linear_70_2907" x1="-2.95853" y1="28.5043" x2="47.8712" y2="49.3556" gradientUnits="userSpaceOnUse">
<stop stop-color="white"/>
<stop offset="0.703125" stop-color="#FF29BA"/>
<stop offset="1" stop-color="#A749FF"/>
</linearGradient>
</defs>
</svg>
