<svg width="22" height="22" viewBox="0 0 22 22" fill="none" xmlns="http://www.w3.org/2000/svg">
<path d="M8.06693 1.41209C8.23841 1.03292 8.15714 0.587181 7.86288 0.292922C7.56862 -0.00133649 7.12289 -0.0826043 6.74371 0.0888724C2.76893 1.88642 0 5.88764 0 10.5377C0 16.8682 5.13185 22 11.4623 22C16.1124 22 20.1136 19.2311 21.9112 15.2563C22.0826 14.8771 22.0014 14.4314 21.7071 14.1371C21.4128 13.8429 20.9671 13.7616 20.5879 13.9331C19.4015 14.4697 18.0838 14.7689 16.6935 14.7689C11.4676 14.7689 7.23116 10.5325 7.23116 5.30656C7.23116 3.91628 7.53036 2.59857 8.06693 1.41209Z" fill="#FEFEFE"/>
</svg>
